<?xml version="1.0" encoding="utf-8"?>
<!-- Generator: Adobe Illustrator 27.2.0, SVG Export Plug-In . SVG Version: 6.00 Build 0)  -->
<svg version="1.1" id="Layer_1" xmlns="http://www.w3.org/2000/svg" xmlns:xlink="http://www.w3.org/1999/xlink" x="0px" y="0px"
	 viewBox="0 0 193.5 125.1" style="enable-background:new 0 0 193.5 125.1;" xml:space="preserve">
<style type="text/css">
	.st0{fill:#FFFFFF;}
</style>
<g>
	<rect x="51.6" y="64.5" class="st0" width="25.8" height="12.9"/>
	<rect x="51.6" y="0" class="st0" width="25.8" height="12.9"/>
	<rect x="77.4" y="12.9" class="st0" width="12.9" height="51.6"/>
	<rect x="116.1" y="64.5" class="st0" width="25.8" height="12.9"/>
	<polygon class="st0" points="154.8,25.8 129,25.8 129,38.7 141.9,38.7 141.9,64.5 154.8,64.5 	"/>
	<rect x="116.1" y="0" class="st0" width="38.7" height="12.9"/>
	<rect x="103.2" y="12.9" class="st0" width="12.9" height="51.6"/>
	<polygon class="st0" points="25.8,38.7 12.9,38.7 12.9,51.6 12.9,64.5 25.8,64.5 25.8,51.6 	"/>
	<rect x="0" y="25.8" class="st0" width="12.9" height="12.9"/>
	<polygon class="st0" points="38.7,77.4 38.7,64.5 51.6,64.5 51.6,12.9 38.7,12.9 38.7,64.5 25.8,64.5 25.8,77.4 	"/>
	<path class="st0" d="M38.7,125.1h5.8v-17.4h17.4V90.3H38.7V125.1z M44.5,96.1h11.6v5.8H44.5V96.1z"/>
	<polygon class="st0" points="67.7,125.1 90.9,125.1 90.9,119.3 73.5,119.3 73.5,107.7 90.9,107.7 90.9,101.9 73.5,101.9 73.5,96.1 
		90.9,96.1 90.9,90.3 67.7,90.3 	"/>
	<polygon class="st0" points="96.8,96.1 108.4,96.1 108.4,125.1 114.2,125.1 114.2,96.1 125.8,96.1 125.8,90.3 96.8,90.3 	"/>
	<polygon class="st0" points="131.6,107.7 149,107.7 149,119.3 131.6,119.3 131.6,125.1 154.8,125.1 154.8,101.9 137.4,101.9 
		137.4,96.1 154.8,96.1 154.8,90.3 131.6,90.3 	"/>
</g>
</svg>
