<?xml version="1.0" standalone="no"?>
<!DOCTYPE svg PUBLIC "-//W3C//DTD SVG 20010904//EN"
 "http://www.w3.org/TR/2001/REC-SVG-20010904/DTD/svg10.dtd">
<svg version="1.0" xmlns="http://www.w3.org/2000/svg"
 width="113.000000pt" height="113.000000pt" viewBox="0 0 113.000000 113.000000"
 preserveAspectRatio="xMidYMid meet">
<metadata>
Created by potrace 1.14, written by Peter Selinger 2001-2017
</metadata>
<g transform="translate(0.000000,113.000000) scale(0.100000,-0.100000)"
fill="#000000" stroke="none">
<path d="M379 1060 c-1 -3 -2 -198 -3 -435 l-1 -430 -63 -3 -62 -3 1 88 c0 48
0 105 0 125 l-1 37 -62 3 -62 3 2 57 c2 64 0 65 -73 64 l-50 -1 -3 -63 c-3
-54 -1 -62 15 -63 10 0 38 -1 63 -2 l45 -2 0 -117 c0 -64 3 -120 7 -124 4 -4
33 -7 63 -6 l55 0 0 -59 0 -59 64 0 65 0 -1 47 c0 27 1 53 1 60 1 7 23 11 61
11 l60 -1 0 -58 0 -59 66 0 66 0 -2 43 c-3 82 -14 76 123 75 l123 -1 -2 -59
-1 -58 63 0 c70 0 67 -4 66 76 l-1 41 47 1 c26 0 54 0 63 1 14 1 16 45 16 431
0 305 -3 433 -11 438 -6 3 -35 7 -63 7 l-53 1 0 -63 0 -63 -63 0 -64 0 2 -55
c1 -30 -1 -59 -4 -63 -3 -4 -59 -8 -123 -7 l-118 0 0 62 0 62 -62 3 -63 3 -1
53 c0 28 -4 55 -8 59 -9 9 -115 12 -117 3z"/>
</g>
</svg>
